<mxfile host="app.diagrams.net" agent="Mozilla/5.0 (Windows NT 10.0; Win64; x64) AppleWebKit/537.36 (KHTML, like Gecko) Chrome/129.0.0.0 Safari/537.36" version="24.7.17">
  <diagram name="1 oldal" id="8_ZoQVMhJrcuSsGxvHBY">
    <mxGraphModel dx="712" dy="829" grid="1" gridSize="10" guides="1" tooltips="1" connect="1" arrows="1" fold="1" page="1" pageScale="1" pageWidth="827" pageHeight="1169" math="0" shadow="0">
      <root>
        <mxCell id="0" />
        <mxCell id="1" parent="0" />
        <mxCell id="fOuyArTs9ZE_MJs5jXVL-1" value="Termék" style="rounded=0;whiteSpace=wrap;html=1;fillColor=#f9f7ed;strokeColor=#CBCF9C;" parent="1" vertex="1">
          <mxGeometry x="29.54" y="460" width="150" height="80" as="geometry" />
        </mxCell>
        <mxCell id="fOuyArTs9ZE_MJs5jXVL-4" value="Gyártó" style="rounded=0;whiteSpace=wrap;html=1;fillColor=#ffcc99;strokeColor=#36393d;" parent="1" vertex="1">
          <mxGeometry x="629.54" y="460" width="150" height="80" as="geometry" />
        </mxCell>
        <mxCell id="fOuyArTs9ZE_MJs5jXVL-6" value="" style="endArrow=classic;html=1;rounded=0;exitX=1;exitY=0.5;exitDx=0;exitDy=0;entryX=0;entryY=0.5;entryDx=0;entryDy=0;" parent="1" source="fOuyArTs9ZE_MJs5jXVL-12" target="fOuyArTs9ZE_MJs5jXVL-4" edge="1">
          <mxGeometry width="50" height="50" relative="1" as="geometry">
            <mxPoint x="379.54" y="499.5" as="sourcePoint" />
            <mxPoint x="609.54" y="500" as="targetPoint" />
            <Array as="points">
              <mxPoint x="489.54" y="499.5" />
            </Array>
          </mxGeometry>
        </mxCell>
        <mxCell id="fOuyArTs9ZE_MJs5jXVL-12" value="" style="rhombus;whiteSpace=wrap;html=1;fillColor=#ffff88;strokeColor=#36393d;" parent="1" vertex="1">
          <mxGeometry x="353.54" y="460" width="80" height="80" as="geometry" />
        </mxCell>
        <mxCell id="fOuyArTs9ZE_MJs5jXVL-13" value="" style="endArrow=classic;html=1;rounded=0;exitX=1;exitY=0.5;exitDx=0;exitDy=0;" parent="1" edge="1">
          <mxGeometry width="50" height="50" relative="1" as="geometry">
            <mxPoint x="297.54" y="500" as="sourcePoint" />
            <mxPoint x="189.54" y="500" as="targetPoint" />
            <Array as="points">
              <mxPoint x="353.54" y="499.5" />
            </Array>
          </mxGeometry>
        </mxCell>
        <mxCell id="fOuyArTs9ZE_MJs5jXVL-14" value="" style="endArrow=classic;html=1;rounded=0;entryX=1;entryY=0.5;entryDx=0;entryDy=0;exitX=0;exitY=0.5;exitDx=0;exitDy=0;" parent="1" edge="1">
          <mxGeometry width="50" height="50" relative="1" as="geometry">
            <mxPoint x="353.54" y="499.5" as="sourcePoint" />
            <mxPoint x="179.54" y="499.5" as="targetPoint" />
          </mxGeometry>
        </mxCell>
        <mxCell id="fOuyArTs9ZE_MJs5jXVL-16" value="név" style="ellipse;whiteSpace=wrap;html=1;fillColor=#ffcccc;strokeColor=#36393d;" parent="1" vertex="1">
          <mxGeometry x="-0.46000000000000085" y="610" width="70" height="30" as="geometry" />
        </mxCell>
        <mxCell id="fOuyArTs9ZE_MJs5jXVL-19" value="ear" style="ellipse;whiteSpace=wrap;html=1;fillColor=#ffcccc;strokeColor=#36393d;" parent="1" vertex="1">
          <mxGeometry x="80" y="607" width="70" height="36" as="geometry" />
        </mxCell>
        <mxCell id="fOuyArTs9ZE_MJs5jXVL-22" value="telephely" style="ellipse;whiteSpace=wrap;html=1;fillColor=#ffcccc;strokeColor=#36393d;" parent="1" vertex="1">
          <mxGeometry x="599.54" y="609" width="90" height="40" as="geometry" />
        </mxCell>
        <mxCell id="fOuyArTs9ZE_MJs5jXVL-23" value="név" style="ellipse;whiteSpace=wrap;html=1;fillColor=#ffcccc;strokeColor=#36393d;" parent="1" vertex="1">
          <mxGeometry x="699.54" y="609" width="90" height="40" as="geometry" />
        </mxCell>
        <mxCell id="fOuyArTs9ZE_MJs5jXVL-24" value="&lt;u&gt;adószám&lt;/u&gt;" style="ellipse;whiteSpace=wrap;html=1;fillColor=#ffcccc;strokeColor=#36393d;" parent="1" vertex="1">
          <mxGeometry x="489.54" y="609" width="100" height="50" as="geometry" />
        </mxCell>
        <mxCell id="fOuyArTs9ZE_MJs5jXVL-26" value="&lt;u&gt;tkód&lt;/u&gt;" style="ellipse;whiteSpace=wrap;html=1;fillColor=#ffcccc;strokeColor=#36393d;" parent="1" vertex="1">
          <mxGeometry x="159.54" y="607" width="70" height="39" as="geometry" />
        </mxCell>
        <mxCell id="fOuyArTs9ZE_MJs5jXVL-29" value="" style="endArrow=none;html=1;rounded=0;exitX=0.5;exitY=0;exitDx=0;exitDy=0;entryX=0.5;entryY=1;entryDx=0;entryDy=0;" parent="1" source="fOuyArTs9ZE_MJs5jXVL-16" target="fOuyArTs9ZE_MJs5jXVL-1" edge="1">
          <mxGeometry width="50" height="50" relative="1" as="geometry">
            <mxPoint x="20.000000000000036" y="609.4000000000001" as="sourcePoint" />
            <mxPoint x="99.53999999999999" y="560" as="targetPoint" />
          </mxGeometry>
        </mxCell>
        <mxCell id="fOuyArTs9ZE_MJs5jXVL-31" value="" style="endArrow=none;html=1;rounded=0;exitX=0.5;exitY=0;exitDx=0;exitDy=0;entryX=0.5;entryY=1;entryDx=0;entryDy=0;" parent="1" source="fOuyArTs9ZE_MJs5jXVL-19" target="fOuyArTs9ZE_MJs5jXVL-1" edge="1">
          <mxGeometry width="50" height="50" relative="1" as="geometry">
            <mxPoint x="369.54" y="660" as="sourcePoint" />
            <mxPoint x="419.54" y="610" as="targetPoint" />
          </mxGeometry>
        </mxCell>
        <mxCell id="fOuyArTs9ZE_MJs5jXVL-32" value="" style="endArrow=none;html=1;rounded=0;exitX=0.5;exitY=0;exitDx=0;exitDy=0;entryX=0.5;entryY=1;entryDx=0;entryDy=0;" parent="1" source="fOuyArTs9ZE_MJs5jXVL-26" target="fOuyArTs9ZE_MJs5jXVL-1" edge="1">
          <mxGeometry width="50" height="50" relative="1" as="geometry">
            <mxPoint x="369.54" y="660" as="sourcePoint" />
            <mxPoint x="419.54" y="610" as="targetPoint" />
          </mxGeometry>
        </mxCell>
        <mxCell id="fOuyArTs9ZE_MJs5jXVL-34" value="" style="endArrow=none;html=1;rounded=0;entryX=0.5;entryY=1;entryDx=0;entryDy=0;exitX=0.5;exitY=0;exitDx=0;exitDy=0;" parent="1" source="fOuyArTs9ZE_MJs5jXVL-24" target="fOuyArTs9ZE_MJs5jXVL-4" edge="1">
          <mxGeometry width="50" height="50" relative="1" as="geometry">
            <mxPoint x="369.54" y="660" as="sourcePoint" />
            <mxPoint x="419.54" y="610" as="targetPoint" />
          </mxGeometry>
        </mxCell>
        <mxCell id="fOuyArTs9ZE_MJs5jXVL-37" value="" style="endArrow=none;html=1;rounded=0;exitX=0.5;exitY=0;exitDx=0;exitDy=0;entryX=0.5;entryY=1;entryDx=0;entryDy=0;" parent="1" source="fOuyArTs9ZE_MJs5jXVL-22" target="fOuyArTs9ZE_MJs5jXVL-4" edge="1">
          <mxGeometry width="50" height="50" relative="1" as="geometry">
            <mxPoint x="369.54" y="660" as="sourcePoint" />
            <mxPoint x="419.54" y="610" as="targetPoint" />
          </mxGeometry>
        </mxCell>
        <mxCell id="fOuyArTs9ZE_MJs5jXVL-38" value="" style="endArrow=none;html=1;rounded=0;exitX=0.5;exitY=0;exitDx=0;exitDy=0;entryX=0.5;entryY=1;entryDx=0;entryDy=0;" parent="1" source="fOuyArTs9ZE_MJs5jXVL-23" target="fOuyArTs9ZE_MJs5jXVL-4" edge="1">
          <mxGeometry width="50" height="50" relative="1" as="geometry">
            <mxPoint x="369.54" y="660" as="sourcePoint" />
            <mxPoint x="419.54" y="610" as="targetPoint" />
          </mxGeometry>
        </mxCell>
      </root>
    </mxGraphModel>
  </diagram>
</mxfile>
